<svg aria-hidden="true" style="position: absolute; width: 0; height: 0; overflow: hidden;" version="1.1" xmlns="http://www.w3.org/2000/svg" xmlns:xlink="http://www.w3.org/1999/xlink">
<defs>
<symbol id="icon-empty_star" viewBox="0 0 32 32">
<path fill="#967e76" style="fill: var(--color1, #967e76)" d="M10.554 24.053l5.233-2.968 5.233 3-1.4-5.621 4.6-3.789-6.067-0.505-2.367-5.305-2.367 5.274-6.067 0.505 4.6 3.789-1.4 5.621zM7.554 28l2.167-8.874-7.267-5.968 9.6-0.789 3.733-8.368 3.733 8.368 9.6 0.789-7.267 5.968 2.167 8.874-8.233-4.705-8.233 4.705z"></path>
</symbol>
<symbol id="icon-facebook" viewBox="0 0 32 32">
<path fill="#eee4dd" style="fill: var(--color2, #eee4dd)" d="M32 16c0-8.837-7.163-16-16-16s-16 7.163-16 16c0 7.986 5.851 14.605 13.5 15.806v-11.181h-4.063v-4.625h4.063v-3.525c0-4.010 2.389-6.225 6.043-6.225 1.75 0 3.582 0.313 3.582 0.313v3.938h-2.017c-1.988 0-2.608 1.233-2.608 2.5v3h4.437l-0.709 4.625h-3.728v11.181c7.649-1.2 13.5-7.82 13.5-15.806z"></path>
</symbol>
<symbol id="icon-full_star" viewBox="0 0 32 32">
<path fill="#967e76" style="fill: var(--color1, #967e76)" d="M8.633 28l2.058-8.874-6.903-5.968 9.12-0.789 3.547-8.368 3.547 8.368 9.12 0.789-6.903 5.968 2.058 8.874-7.822-4.705-7.822 4.705z"></path>
</symbol>
<symbol id="icon-icon001" viewBox="0 0 32 32">
<path fill="#967e76" style="fill: var(--color1, #967e76)" d="M8.672 8c-0.214 0-0.386 0.172-0.386 0.386s0.172 0.386 0.386 0.386c7.937 0 14.394 6.457 14.394 14.394 0 0.214 0.172 0.386 0.386 0.386s0.386-0.172 0.386-0.386c0.002-8.361-6.803-15.166-15.166-15.166l-0-0z"></path>
<path fill="#967e76" style="fill: var(--color1, #967e76)" d="M8.672 12.399c-0.214 0-0.386 0.172-0.386 0.386s0.172 0.386 0.386 0.386c5.51 0 9.995 4.485 9.995 9.995 0 0.214 0.172 0.386 0.386 0.386s0.386-0.172 0.386-0.386c0.002-5.936-4.829-10.767-10.767-10.767z"></path>
<path fill="#967e76" style="fill: var(--color1, #967e76)" d="M8.672 16.801c-0.214 0-0.386 0.172-0.386 0.386s0.172 0.386 0.386 0.386c3.085 0 5.595 2.51 5.595 5.595 0 0.214 0.172 0.386 0.386 0.386s0.386-0.172 0.386-0.386c-0-3.513-2.855-6.368-6.368-6.368l-0-0z"></path>
<path fill="#967e76" style="fill: var(--color1, #967e76)" d="M10.188 20.796c0.807 0.334 1.19 1.26 0.856 2.067s-1.26 1.19-2.067 0.856c-0.807-0.334-1.191-1.26-0.856-2.067s1.26-1.19 2.067-0.856z"></path>
</symbol>
<symbol id="icon-icon01" viewBox="0 0 32 32">
<path fill="#967e76" style="fill: var(--color1, #967e76)" d="M22.399 14.591c0.546-0.417 0.866-1.065 0.867-1.751v-0.316h-1.199l1.753-2.003-0.476-0.416-2.117 2.419h-3.647v0.316c0 0.687 0.321 1.334 0.867 1.751-0.43 0.218-0.737 0.62-0.835 1.092h-1.927v-9.477h-8.845v9.477h-0.632v8.845h1.333l0.316 1.264h3.021l0.316-1.264h9.616l0.316 1.264h3.021l0.316-1.264h1.333v-8.845h-2.559c-0.098-0.472-0.405-0.874-0.835-1.092l0-0zM22.602 13.156h0c-0.073 0.356-0.267 0.677-0.549 0.907s-0.634 0.356-0.999 0.357h-1.264c-0.364-0.001-0.717-0.126-0.999-0.357s-0.476-0.55-0.549-0.907h4.359zM19.159 15.051h2.527c0.195 0.001 0.386 0.062 0.545 0.175s0.28 0.273 0.345 0.457h-4.306c0.065-0.184 0.185-0.344 0.344-0.457s0.35-0.174 0.545-0.175v0zM9.998 14.419h-1.264v-3.791h1.264v3.791zM10.63 11.892h1.264l0 2.527h-1.264l-0-2.527zM10.63 11.26l0-1.264h-2.527v4.422h-0.632v-6.318h7.582v6.318h-2.527v-3.159l-1.896 0zM15.053 6.838v0.632h-7.582v-0.632h7.582zM7.471 15.051h7.582v0.632h-7.582v-0.632zM10.383 25.16h-2.033l-0.158-0.632h2.35l-0.158 0.632zM23.651 25.16h-2.033l-0.158-0.632h2.35l-0.158 0.632zM6.839 23.896v-6.318h18.322v6.318l-18.322 0zM25.161 16.947l-18.322-0v-0.632h18.322v0.632zM20.739 8.417h0.632v0.694c0 0.434-0.128 0.858-0.369 1.218-0.172 0.257-0.263 0.559-0.263 0.868v0.694h-0.632v-0.694c-0-0.434 0.128-0.858 0.369-1.219 0.171-0.257 0.263-0.559 0.263-0.868v-0.694zM18.843 7.786l0.632-0v0.694c0 0.434-0.128 0.858-0.369 1.219-0.172 0.257-0.263 0.559-0.263 0.868v0.694h-0.632v-0.694c-0-0.434 0.128-0.858 0.369-1.219 0.172-0.257 0.263-0.559 0.263-0.868v-0.694zM7.471 23.264h17.058l0-5.055h-17.059l0 5.055zM23.897 22.633l-7.581-0v-3.791h7.582l-0 3.791zM8.103 18.842h7.582v3.791h-7.582v-3.791zM16.948 21.369v-1.264h0.632v1.264h-0.632zM15.052 20.105v1.264h-0.632v-1.264h0.632z"></path>
</symbol>
<symbol id="icon-Icon1" viewBox="0 0 32 32">
<path fill="#967e76" style="fill: var(--color1, #967e76)" d="M32 4.875v8.512l-2.168 0 0 13.21h1.726v4.336h-31.117v-4.336h1.726v-13.21h-2.168v-8.512h2.168v-3.413l27.664-0v3.413h2.168zM28.627 2.667h-25.255v2.208l25.255 0v-2.208zM30.755 6.079h-29.591v6.103h29.591v-6.103zM17.947 13.387h-4.015v3.252h4.015v-3.252zM30.354 29.728v-1.927h-28.708v1.927h28.708zM12.567 23.344c0 1.164 0.843 2.128 1.847 2.128h3.734c1.004 0 1.847-0.964 1.847-2.128v-3.573h-7.428v3.573zM18.79 26.597l9.837 0 0-13.21h-9.435v1.526l4.818 0v1.205h-4.818v1.726h-6.424v-4.457h-9.395v13.25h10.359c-1.365-0.321-2.369-1.686-2.369-3.252v-4.216l0.040-0.562h9.917c1.205 0 2.208 0.923 2.208 2.048v2.208c0 1.124-0.964 2.048-2.208 2.048h-0.522c-0.402 0.843-1.124 1.486-2.008 1.686zM21.4 19.771h-0.201v3.895h0.201c0.562 0 1.004-0.362 1.004-0.843v-2.208c0-0.442-0.442-0.843-1.004-0.843zM18.389 9.733c-0.241 1.084-1.245 1.887-2.409 1.887s-2.168-0.803-2.409-1.887h-1.044v-1.205h1.044c0.241-1.084 1.245-1.887 2.409-1.887s2.128 0.803 2.409 1.887h1.044v1.205h-1.044zM14.856 9.733c0.201 0.401 0.643 0.683 1.124 0.683s0.923-0.281 1.165-0.683h-2.289zM17.104 8.489c-0.201-0.401-0.642-0.683-1.124-0.683s-0.923 0.281-1.165 0.683h2.289zM8.512 8.489h1.726v1.205h-1.726v-1.205zM23.448 8.489h-1.726v1.205h1.726v-1.205z"></path>
</symbol>
<symbol id="icon-icon002" viewBox="0 0 32 32">
<path fill="#967e76" style="fill: var(--color1, #967e76)" d="M20.367 11.677c-0.1 0.244 0.019 0.522 0.263 0.622 0.057 0.024 0.12 0.034 0.182 0.034 0.187 0 0.368-0.115 0.445-0.297 0.421-1.038 0.211-2.077 0.019-2.995-0.167-0.823-0.316-1.531-0.034-2.12 0.115-0.239 0.014-0.526-0.225-0.636-0.239-0.115-0.522-0.014-0.636 0.225-0.421 0.88-0.225 1.818-0.043 2.723 0.177 0.861 0.345 1.675 0.029 2.445l0-0z"></path>
<path fill="#967e76" style="fill: var(--color1, #967e76)" d="M16.046 11.715c-0.081 0.254 0.057 0.522 0.311 0.603 0.048 0.014 0.096 0.024 0.144 0.024 0.201 0 0.392-0.129 0.455-0.335 0.402-1.263 0.206-2.502 0.014-3.704-0.168-1.048-0.325-2.034-0.019-2.857 0.091-0.249-0.034-0.522-0.282-0.617-0.249-0.091-0.522 0.034-0.617 0.282-0.392 1.057-0.206 2.22-0.029 3.34 0.172 1.086 0.354 2.211 0.019 3.258l0.005 0.005z"></path>
<path fill="#967e76" style="fill: var(--color1, #967e76)" d="M11.755 11.677c-0.1 0.244 0.019 0.522 0.263 0.622 0.058 0.024 0.12 0.034 0.182 0.034 0.187 0 0.368-0.115 0.445-0.297 0.421-1.038 0.211-2.077 0.019-2.995-0.168-0.823-0.316-1.531-0.034-2.12 0.115-0.239 0.014-0.526-0.225-0.636-0.239-0.115-0.526-0.014-0.636 0.225-0.421 0.88-0.225 1.818-0.043 2.723 0.177 0.861 0.345 1.675 0.029 2.445l0-0z"></path>
<path fill="#967e76" style="fill: var(--color1, #967e76)" d="M20.099 14.371h-7.656c-0.842 0-1.655 0.115-2.44 0.311h-0.062c-0.024 0.005-0.043 0.024-0.067 0.034-0.957 0.254-1.856 0.646-2.679 1.153-0.043 0.019-0.081 0.038-0.115 0.072-2.809 1.785-4.679 4.914-4.679 8.479 0 1.32 1.072 2.392 2.392 2.392h22.962c1.321 0 2.392-1.072 2.392-2.392 0-5.541-4.507-10.048-10.048-10.048h0zM22.391 15.634c0.622 0.163 1.215 0.388 1.78 0.67-0.746 2.526-1.641 3.632-1.871 3.675-0.277-0.196-0.459-1.842 0.091-4.345h-0zM17.219 15.328c-0.067 2.608-0.646 4.187-0.933 4.311-0.321-0.124-0.904-1.699-0.971-4.311h1.904zM9.798 19.969c-0.287-0.038-1.129-1.12-1.842-3.445 0.546-0.311 1.129-0.574 1.737-0.766 0.56 2.622 0.292 4.058 0.105 4.211v0zM27.75 25.854h-22.963c-0.79 0-1.435-0.646-1.435-1.435 0-3.029 1.493-5.703 3.775-7.359 0.431 1.32 1.426 3.866 2.665 3.866 0.072 0 0.148-0.010 0.22-0.029 1.316-0.325 1.043-3.345 0.608-5.388 0.588-0.12 1.196-0.182 1.823-0.182h1.919c0.057 2.153 0.502 5.263 1.909 5.263s1.852-3.11 1.909-5.263h1.919c0.464 0 0.914 0.048 1.359 0.115-0.45 2.072-0.742 5.12 0.593 5.459 0.072 0.019 0.139 0.024 0.211 0.024 1.1 0 2.125-2.072 2.761-4.134 2.502 1.622 4.168 4.431 4.168 7.632 0 0.79-0.646 1.435-1.435 1.435l-0.005-0.005z"></path>
</symbol>
<symbol id="icon-icon02" viewBox="0 0 32 32">
<path fill="#967e76" style="fill: var(--color1, #967e76)" d="M27.84 14.313c0-0.831-0.509-1.567-1.265-1.871 0.001-0.021 0.001-0.042 0.001-0.063 0-1.365-1.11-2.475-2.475-2.475-0.164 0-0.327 0.016-0.487 0.049-0.072-1.048-0.948-1.879-2.014-1.879-0.831 0-1.568 0.509-1.871 1.265-0.021-0.001-0.042-0.001-0.063-0.001-1.365 0-2.474 1.11-2.474 2.475 0 0.164 0.016 0.327 0.049 0.487-1.049 0.071-1.88 0.947-1.88 2.014 0 0.831 0.509 1.568 1.266 1.871-0.001 0.021-0.001 0.042-0.001 0.063 0 1.365 1.11 2.475 2.474 2.475 0.164 0 0.327-0.016 0.487-0.049 0.065 0.949 0.789 1.717 1.716 1.855l0 6.715h-11.62v-6.378c0.552 0.457 1.251 0.719 1.978 0.719 1.714 0 3.108-1.394 3.108-3.108 0-0.775-0.293-1.521-0.813-2.092 0.52-0.57 0.813-1.317 0.813-2.092s-0.293-1.521-0.813-2.092c0.52-0.57 0.813-1.317 0.813-2.092 0-1.405-0.943-2.625-2.276-2.994v-0.009c0-1.714-1.394-3.108-3.108-3.108s-3.108 1.394-3.108 3.108v0.009c-1.333 0.369-2.276 1.588-2.276 2.994 0 0.775 0.293 1.521 0.813 2.092-0.52 0.57-0.813 1.316-0.813 2.091s0.293 1.521 0.813 2.092c-0.52 0.571-0.813 1.317-0.813 2.092 0 1.714 1.394 3.108 3.108 3.108 0.728 0 1.426-0.262 1.978-0.719v6.378h-4.788c-0.165 0-0.298 0.133-0.298 0.298s0.133 0.298 0.298 0.298h23.244c0.165 0 0.298-0.133 0.298-0.298s-0.133-0.298-0.298-0.298h-5.644v-6.713c0.705-0.105 1.307-0.578 1.574-1.243 0.021 0.001 0.042 0.001 0.063 0.001 1.365 0 2.475-1.11 2.475-2.475 0-0.164-0.016-0.327-0.049-0.487 1.048-0.072 1.88-0.948 1.88-2.014v-0zM4.596 18.477c0-0.71 0.306-1.392 0.839-1.87 0.063-0.057 0.099-0.137 0.099-0.222s-0.036-0.165-0.099-0.222c-0.533-0.477-0.839-1.159-0.839-1.87s0.306-1.392 0.839-1.87c0.063-0.056 0.099-0.137 0.099-0.222s-0.036-0.166-0.099-0.222c-0.533-0.477-0.839-1.159-0.839-1.869 0-1.207 0.86-2.244 2.045-2.467 0.15-0.028 0.255-0.165 0.242-0.317-0.006-0.072-0.011-0.144-0.011-0.217 0-1.385 1.127-2.513 2.513-2.513s2.512 1.127 2.512 2.512c0 0.073-0.005 0.146-0.011 0.217-0.013 0.152 0.092 0.289 0.242 0.317 1.185 0.223 2.045 1.26 2.045 2.467 0 0.711-0.306 1.392-0.839 1.87-0.063 0.057-0.099 0.137-0.099 0.222s0.036 0.166 0.099 0.222c0.533 0.477 0.839 1.159 0.839 1.87s-0.306 1.392-0.839 1.87c-0.063 0.057-0.099 0.137-0.099 0.222s0.036 0.166 0.099 0.222c0.533 0.477 0.839 1.159 0.839 1.87 0 1.385-1.127 2.512-2.512 2.512-0.696 0-1.36-0.294-1.832-0.799l1.626-1.625c0.116-0.116 0.116-0.305 0-0.421s-0.305-0.116-0.421 0l-1.35 1.35v-3.267l1.771-1.771c0.116-0.116 0.116-0.305 0-0.421s-0.305-0.116-0.421 0l-1.35 1.35v-3.266l1.771-1.771c0.116-0.116 0.116-0.305 0-0.421s-0.305-0.116-0.421 0l-1.35 1.35v-3.275c0-0.165-0.133-0.298-0.298-0.298s-0.298 0.133-0.298 0.298v3.275l-1.35-1.35c-0.116-0.116-0.305-0.116-0.421 0s-0.116 0.305 0 0.421l1.771 1.771v3.266l-1.35-1.35c-0.116-0.116-0.305-0.116-0.421 0s-0.116 0.305 0 0.421l1.771 1.771v3.267l-1.35-1.35c-0.116-0.116-0.305-0.116-0.421 0s-0.116 0.305 0 0.421l1.626 1.626c-0.472 0.504-1.136 0.799-1.832 0.799-1.385 0-2.512-1.127-2.512-2.512h-0zM25.821 15.736c-0.066 0-0.136-0.006-0.22-0.019-0.105-0.016-0.212 0.025-0.279 0.109s-0.083 0.196-0.044 0.296c0.089 0.223 0.134 0.457 0.134 0.692 0 1.036-0.843 1.879-1.879 1.879-0.079 0-0.157-0.007-0.234-0.017-0.147-0.017-0.288 0.075-0.326 0.22-0.138 0.526-0.562 0.915-1.077 1.026l0-4.449 1.576-1.576c0.116-0.116 0.116-0.305 0-0.421s-0.305-0.116-0.421 0l-1.154 1.154v-1.551c0-0.165-0.133-0.298-0.298-0.298s-0.298 0.133-0.298 0.298v3.233l-1.182-1.182c-0.116-0.116-0.305-0.116-0.421 0s-0.116 0.305 0 0.421l1.603 1.603v2.771c-0.641-0.138-1.125-0.708-1.125-1.39 0-0.066 0.006-0.136 0.019-0.219 0.016-0.106-0.025-0.212-0.109-0.279-0.054-0.043-0.12-0.065-0.186-0.065-0.037 0-0.074 0.007-0.11 0.021-0.223 0.089-0.456 0.134-0.693 0.134-1.036 0-1.878-0.843-1.878-1.879 0-0.080 0.007-0.158 0.016-0.235 0.018-0.148-0.076-0.287-0.22-0.325-0.625-0.164-1.061-0.729-1.061-1.374 0-0.784 0.638-1.422 1.423-1.422 0.065 0 0.137 0.006 0.219 0.019 0.107 0.016 0.212-0.025 0.279-0.109s0.083-0.196 0.044-0.296c-0.089-0.223-0.134-0.456-0.134-0.692 0-1.036 0.843-1.879 1.879-1.879 0.080 0 0.158 0.007 0.236 0.016 0.149 0.021 0.287-0.076 0.325-0.22 0.164-0.624 0.729-1.061 1.374-1.061 0.784 0 1.423 0.638 1.423 1.422 0 0.066-0.006 0.137-0.019 0.218-0.017 0.106 0.024 0.212 0.108 0.279s0.197 0.084 0.296 0.044c0.223-0.089 0.456-0.134 0.693-0.134 1.036 0 1.879 0.843 1.879 1.879 0 0.080-0.007 0.158-0.017 0.235-0.018 0.148 0.076 0.287 0.22 0.325 0.625 0.164 1.061 0.729 1.061 1.374 0 0.785-0.638 1.423-1.423 1.423l0 0z"></path>
</symbol>
<symbol id="icon-Icon2" viewBox="0 0 32 32">
<path fill="#967e76" style="fill: var(--color1, #967e76)" d="M3.756 4.267c-0.292 0.029-0.514 0.275-0.514 0.569v9.367h-0.624c-1.44 0-2.618 1.179-2.618 2.619v7.267l0-0c0.001 0.314 0.255 0.569 0.569 0.57h1.665v2.592c-0.003 0.154 0.055 0.302 0.163 0.412s0.255 0.172 0.408 0.172c0.153 0 0.301-0.062 0.408-0.172s0.166-0.258 0.163-0.412v-2.592h25.264v2.592c-0.004 0.154 0.055 0.302 0.163 0.412s0.255 0.172 0.408 0.172c0.154 0 0.301-0.062 0.408-0.172s0.166-0.259 0.163-0.412v-2.592l1.648-0c0.314-0.001 0.568-0.256 0.569-0.57v-7.267c0-1.44-1.174-2.619-2.613-2.619l-0.611 0v-9.367c-0.001-0.316-0.258-0.57-0.573-0.569h-24.392c-0.018-0.001-0.036-0.001-0.055 0h-0zM4.383 5.409h23.249v8.794h-2.815v-3.047c0-0.774-0.641-1.416-1.416-1.416h-6.552c-0.317 0-0.609 0.111-0.848 0.291-0.238-0.18-0.529-0.291-0.846-0.291h-6.551c-0.776 0-1.416 0.642-1.416 1.416v3.047h-2.804l0-8.794zM8.604 10.882h6.551c0.162 0 0.274 0.112 0.274 0.274l0 3.047h-7.1v-3.047c0-0.163 0.112-0.274 0.274-0.274v0zM16.849 10.882h6.552c0.162 0 0.274 0.111 0.274 0.274v3.047h-7.103v-3.047c0-0.162 0.115-0.274 0.278-0.274h-0zM2.618 15.346h26.769c0.827 0 1.471 0.649 1.471 1.476l-0 1.277h-29.715v-1.277c0-0.826 0.649-1.476 1.476-1.476h-0.001zM1.142 19.241h29.716v4.274h-29.716v-4.274z"></path>
</symbol>
<symbol id="icon-icon003" viewBox="0 0 32 32">
<path fill="#967e76" style="fill: var(--color1, #967e76)" d="M28.743 17.374c-0.005-0.328-0.113-0.661-0.318-0.978l-0.010-0.015c-0.942-1.229-2.263-2.007-4.224-2.396 0.266-0.522 0.256-1.091 0.195-1.72-0.005-0.328-0.113-0.66-0.318-0.978l-0.010-0.015c-1.777-2.324-4.915-3.041-11.198-2.555-1.157 0.010-2.186 1.060-2.785 2.826l-3.773 0.809c-1.628 0.348-2.765 1.091-3.046 1.987-0.061 0.2-0.097 0.456-0.031 0.742 0.087 0.906 0.282 1.899 1.070 2.401 0.855 0.548 2.084 0.824 3.533 0.824 0.246 0 0.497-0.010 0.758-0.026-0.497 0.333-0.835 0.732-0.968 1.167-0.061 0.2-0.097 0.456-0.031 0.742 0.087 0.906 0.282 1.899 1.070 2.401 0.855 0.548 2.084 0.824 3.533 0.824 0.809 0 1.684-0.087 2.606-0.261l11.018-2.366c2.944-0.86 3.072-2.007 2.929-3.415l0 0zM23.618 11.583c0.241 0.374 0.287 0.748 0.143 1.106-0.159 0.399-0.553 0.773-1.101 1.075-1.49-0.133-3.282-0.113-5.448 0.056-0.369 0.005-0.727 0.113-1.060 0.317-0.123-2.278-0.906-4.147-2.007-4.971 5.232-0.286 7.941 0.425 9.472 2.417l-0-0zM18.994 15.669l-3.948 0.85c0.527-1.341 1.336-2.156 2.186-2.156 0.66-0.005 1.28 0.491 1.761 1.306v0zM12.865 9.248c0.666 0 1.285 0.497 1.766 1.306l-3.948 0.85c0.522-1.341 1.336-2.156 2.181-2.156v0zM3.757 14.496c0.215-0.696 1.229-1.316 2.647-1.623l8.489-1.823c0.435 0.937 0.712 2.171 0.742 3.502-0.292 0.292-0.558 0.66-0.788 1.106l-4.531 0.973c-2.35 0.502-5.207 0-6.241-1.101-0.322-0.338-0.425-0.686-0.317-1.034l-0 0zM4.571 17.026c-0.302-0.195-0.492-0.507-0.614-0.87 0.952 0.763 2.657 1.213 4.429 1.213 0.686 0 1.377-0.067 2.043-0.21l4.142-0.891c-0.046 0.118-0.092 0.236-0.133 0.364l-4.111 0.881c-2.442 0.466-4.536 0.287-5.755-0.486h0zM8.119 19.606c0.215-0.696 1.229-1.316 2.647-1.623l8.489-1.823c0.461 0.988 0.742 2.299 0.742 3.717 0 0.241-0.010 0.486-0.026 0.727l-5.299 1.137c-2.35 0.502-5.207 0-6.241-1.101-0.317-0.338-0.425-0.686-0.312-1.034l0 0zM25.665 20.266l-10.982 2.355c-2.432 0.466-4.526 0.287-5.744-0.492-0.302-0.195-0.492-0.507-0.614-0.87 0.952 0.763 2.657 1.213 4.429 1.213 0.686 0 1.377-0.067 2.043-0.21l11.003-2.36c0.988-0.236 1.802-0.645 2.319-1.162-0.251 0.594-0.906 1.076-2.452 1.526l-0-0zM28.123 17.804c-0.271 0.681-1.213 1.285-2.452 1.577l-5.156 1.106c0.010-0.205 0.015-0.404 0.015-0.609 0-2.56-0.824-4.705-2.028-5.601 5.232-0.282 7.941 0.425 9.472 2.422 0.246 0.374 0.292 0.748 0.149 1.106l0 0z"></path>
</symbol>
<symbol id="icon-icon03" viewBox="0 0 32 32">
<path fill="#967e76" style="fill: var(--color1, #967e76)" d="M26.862 22.258h-6.745c0.876-0.485 1.606-1.195 2.115-2.057s0.777-1.845 0.778-2.846h0.7c0.751 0 1.444-0.401 1.82-1.051s0.375-1.451 0-2.101c-0.375-0.65-1.069-1.051-1.82-1.051h-12.256c-0.193 0-0.35 0.157-0.35 0.35v3.852c0 0.364 0.036 0.727 0.106 1.084-0.348 0.311-0.612 0.79-0.732 1.36-0.408-0.216-0.917-0.343-1.474-0.343-1.374 0-2.451 0.769-2.451 1.751 0 0.397 0.176 0.76 0.478 1.050h-1.878c-0.193 0-0.35 0.157-0.35 0.35v0.525c0 0.325 0.13 0.636 0.359 0.866s0.541 0.359 0.866 0.359h19.96c0.325-0 0.636-0.13 0.866-0.359s0.359-0.541 0.359-0.866v-0.525c0-0.093-0.037-0.182-0.102-0.248s-0.155-0.103-0.248-0.103l0 0zM23.010 13.854h0.7c0.5 0 0.963 0.267 1.213 0.7s0.25 0.967 0 1.401c-0.25 0.433-0.713 0.7-1.213 0.7h-0.7v-2.801zM11.804 13.854h10.506v3.502c-0.001 1.3-0.518 2.546-1.438 3.465s-2.165 1.436-3.465 1.438h-0.7c-1.042 0.003-2.057-0.329-2.895-0.947 0.063-0.263 0.094-0.533 0.094-0.804 0-1.374-0.769-2.451-1.751-2.451-0.1 0-0.199 0.012-0.295 0.035-0.036-0.243-0.055-0.489-0.055-0.735v-3.502zM13.992 22.258h-0.601c0.062-0.086 0.118-0.176 0.168-0.269 0.141 0.097 0.286 0.186 0.434 0.269v0zM12.402 20.26c-0.367-0.367-0.169-1.091-0.031-1.464 0.469 0.172 0.834 0.886 0.834 1.712 0 0.585-0.183 1.114-0.457 1.434 0.114-0.532 0.126-1.21-0.346-1.682l-0-0zM11.559 19.082c-0.113 0.531-0.122 1.205 0.348 1.674 0.367 0.366 0.169 1.090 0.031 1.462-0.214-0.079-0.412-0.273-0.564-0.555v-0c0.053-0.146 0.081-0.299 0.081-0.454-0.003-0.333-0.125-0.653-0.342-0.905 0.037-0.496 0.208-0.938 0.447-1.222v0zM10.714 21.425c-0.009 0.024-0.020 0.048-0.032 0.072-0.005 0.009-0.010 0.018-0.014 0.028-0.23 0.42-0.899 0.734-1.666 0.734-0.585 0-1.114-0.183-1.434-0.456 0.191 0.042 0.385 0.064 0.58 0.066 0.39 0 0.79-0.101 1.101-0.412 0.367-0.367 1.091-0.169 1.464-0.031v0zM9.002 20.157c0.585 0 1.114 0.183 1.434 0.457-0.532-0.114-1.21-0.126-1.682 0.346-0.367 0.367-1.091 0.169-1.464 0.031 0.172-0.469 0.886-0.833 1.712-0.833h-0zM26.512 23.134c-0 0.29-0.235 0.525-0.525 0.525h-19.96c-0.29-0-0.525-0.235-0.525-0.525v-0.175h21.011v0.175z"></path>
<path fill="#967e76" style="fill: var(--color1, #967e76)" d="M16.331 11.207c0.101 0.296 0.264 0.566 0.479 0.794 0.136 0.136 0.357 0.136 0.493 0.001s0.138-0.357 0.003-0.495c-0.081-0.083-0.773-0.835-0.001-1.607 0.669-0.669 0.63-1.35 0.478-1.803v-0c-0.101-0.296-0.264-0.566-0.478-0.794-0.136-0.137-0.358-0.138-0.495-0.001s-0.138 0.358-0.001 0.495c0.081 0.083 0.773 0.835 0.001 1.607-0.669 0.669-0.63 1.35-0.479 1.803v0z"></path>
<path fill="#967e76" style="fill: var(--color1, #967e76)" d="M13.762 11.207c0.101 0.296 0.264 0.566 0.479 0.794 0.136 0.136 0.357 0.136 0.493 0.001s0.138-0.357 0.003-0.495c-0.081-0.083-0.773-0.835-0.001-1.607 0.669-0.669 0.63-1.35 0.479-1.803l-0-0c-0.101-0.296-0.264-0.566-0.479-0.793-0.136-0.137-0.358-0.138-0.495-0.001s-0.138 0.358-0.001 0.495c0.081 0.083 0.773 0.835 0.001 1.607-0.669 0.669-0.63 1.35-0.478 1.803v0z"></path>
<path fill="#967e76" style="fill: var(--color1, #967e76)" d="M18.898 11.207c0.101 0.296 0.264 0.566 0.479 0.794 0.136 0.136 0.357 0.136 0.493 0.001s0.138-0.357 0.003-0.495c-0.081-0.083-0.773-0.835-0.001-1.607 0.669-0.669 0.63-1.35 0.479-1.803v-0c-0.101-0.296-0.264-0.566-0.479-0.794-0.136-0.137-0.358-0.138-0.495-0.001s-0.138 0.358-0.001 0.495c0.081 0.083 0.773 0.835 0.001 1.607-0.669 0.669-0.629 1.35-0.478 1.803v0z"></path>
</symbol>
<symbol id="icon-Icon3" viewBox="0 0 32 32">
<path fill="#967e76" style="fill: var(--color1, #967e76)" d="M31.36 15.787h-0.64v-9.6c0-1.792-1.408-3.2-3.2-3.2s-3.2 1.408-3.2 3.2c-0.384 0-0.64 0.256-0.64 0.64s0.256 0.64 0.64 0.64h1.28c0.384 0 0.64-0.256 0.64-0.64s-0.256-0.64-0.64-0.64c0-1.088 0.832-1.92 1.92-1.92s1.92 0.832 1.92 1.92v9.6h-3.84v-1.28c0-0.384-0.256-0.64-0.64-0.64h-7.68c-0.384 0-0.64 0.256-0.64 0.64v1.28h-16c-0.384 0-0.64 0.256-0.64 0.64s0.256 0.64 0.64 0.64h0.64c0.128 4.288 1.792 9.792 4.48 12.096 0.512 0.448 1.216 0.704 1.92 0.704v0.64c0 0.384 0.256 0.64 0.64 0.64s0.64-0.256 0.64-0.64v-0.64h14.080v0.64c0 0.384 0.256 0.64 0.64 0.64s0.64-0.256 0.64-0.64v-0.64c0.704 0 1.408-0.256 1.92-0.704 2.688-2.24 4.288-7.744 4.48-12.096h0.64c0.384 0 0.64-0.256 0.64-0.64s-0.256-0.64-0.64-0.64zM17.92 15.147h6.4v5.76h-6.4v-5.76zM17.92 22.187h6.4v1.28h-6.4v-1.28zM25.408 28.139c-0.32 0.256-0.768 0.448-1.216 0.448h-16.384c-0.448 0-0.896-0.128-1.216-0.448-2.368-1.984-3.84-7.168-4.032-11.072h14.080v7.040c0 0.384 0.256 0.64 0.64 0.64h7.68c0.384 0 0.64-0.256 0.64-0.64v-7.040h3.84c-0.192 3.968-1.664 9.088-4.032 11.072zM6.4 9.387c1.088 0 1.92-0.832 1.92-1.92s-0.832-1.92-1.92-1.92c-1.088 0-1.92 0.832-1.92 1.92s0.832 1.92 1.92 1.92zM6.4 6.827c0.384 0 0.64 0.256 0.64 0.64s-0.256 0.64-0.64 0.64c-0.384 0-0.64-0.256-0.64-0.64s0.256-0.64 0.64-0.64zM13.44 6.187c1.408 0 2.56-1.152 2.56-2.56s-1.152-2.56-2.56-2.56c-1.408 0-2.56 1.152-2.56 2.56s1.152 2.56 2.56 2.56zM13.44 2.347c0.704 0 1.28 0.576 1.28 1.28s-0.576 1.28-1.28 1.28c-0.704 0-1.28-0.576-1.28-1.28s0.576-1.28 1.28-1.28zM10.24 14.507c1.088 0 1.92-0.832 1.92-1.92s-0.832-1.92-1.92-1.92c-1.088 0-1.92 0.832-1.92 1.92s0.832 1.92 1.92 1.92zM10.24 11.947c0.384 0 0.64 0.256 0.64 0.64s-0.256 0.64-0.64 0.64c-0.384 0-0.64-0.256-0.64-0.64s0.256-0.64 0.64-0.64z"></path>
</symbol>
<symbol id="icon-icon004" viewBox="0 0 32 32">
<path fill="#967e76" style="fill: var(--color1, #967e76)" d="M23.589 5.211c-0.22 0-0.4 0.18-0.4 0.4v5.68c0 0.616-0.504 1.12-1.12 1.12h-0.080c-0.22 0-0.4 0.18-0.4 0.4v12.4c0 0.44-0.36 0.8-0.8 0.8s-0.8-0.36-0.8-0.8v-12.4c0-0.22-0.18-0.4-0.4-0.4h-0.080c-0.616 0-1.12-0.504-1.12-1.12v-5.68c0-0.22-0.18-0.4-0.4-0.4s-0.4 0.18-0.4 0.4v5.68c0 0.948 0.692 1.74 1.6 1.892v12.028c0 0.884 0.716 1.6 1.6 1.6s1.6-0.716 1.6-1.6v-12.028c0.908-0.152 1.6-0.944 1.6-1.892v-5.68c0-0.22-0.18-0.4-0.4-0.4v0z"></path>
<path fill="#967e76" style="fill: var(--color1, #967e76)" d="M19.989 11.611c0.22 0 0.4-0.18 0.4-0.4v-5.6c0-0.22-0.18-0.4-0.4-0.4s-0.4 0.18-0.4 0.4v5.6c0 0.22 0.18 0.4 0.4 0.4z"></path>
<path fill="#967e76" style="fill: var(--color1, #967e76)" d="M21.589 11.611c0.22 0 0.4-0.18 0.4-0.4v-5.6c0-0.22-0.18-0.4-0.4-0.4s-0.4 0.18-0.4 0.4v5.6c0 0.22 0.18 0.4 0.4 0.4z"></path>
<path fill="#967e76" style="fill: var(--color1, #967e76)" d="M11.589 5.211c-2.12 0-3.6 2.32-3.6 4.4 0 1.568 0.816 3.124 2 3.892v11.568c0 0.96 0.716 1.74 1.6 1.74s1.6-0.78 1.6-1.74v-11.568c1.184-0.772 2-2.328 2-3.892 0-2.080-1.48-4.4-3.6-4.4zM12.389 25.071c0 0.52-0.36 0.94-0.8 0.94s-0.8-0.42-0.8-0.94v-11.18c0.016 0.004 0.028 0.004 0.044 0.008 0.088 0.024 0.172 0.044 0.26 0.060 0.040 0.008 0.076 0.016 0.116 0.024 0.124 0.016 0.252 0.028 0.38 0.028s0.256-0.012 0.384-0.028c0.040-0.004 0.076-0.016 0.116-0.024 0.088-0.016 0.172-0.032 0.26-0.060 0.016-0.004 0.028-0.004 0.044-0.008v11.18h-0.004zM12.597 12.939c-0.080 0.044-0.164 0.084-0.248 0.116-0.416 0.168-0.848 0.196-1.268 0.084-0.168-0.044-0.336-0.112-0.5-0.2-1.040-0.568-1.792-1.968-1.792-3.328 0-1.884 1.336-3.6 2.8-3.6s2.8 1.716 2.8 3.6c0 1.36-0.752 2.76-1.792 3.328v0z"></path>
</symbol>
<symbol id="icon-icon04" viewBox="0 0 32 32">
<path fill="#967e76" style="fill: var(--color1, #967e76)" d="M18.388 5.243c-0.159-0.136-0.351-0.191-0.554-0.16-0.559 0.086-1.043 0.823-1.135 0.97l-4.173 10.159c-0.247-0.302-0.504-0.459-0.769-0.464-0.004-0-0.008-0-0.012-0-0.614 0-0.926 0.78-1.029 1.038-0.662 1.657-5.017 9.656-5.061 9.737l-0.229 0.421h21.145l-2.047-4.769c-1.309-3.87-5.601-16.47-6.138-16.93l-0-0zM17.194 6.333c0.169-0.265 0.507-0.655 0.726-0.689 0.033-0.005 0.060-0.002 0.078 0.011 0.299 0.384 1.95 4.982 3.658 9.9-0.389-0.685-0.8-0.904-1.128-0.944l-0.986-2.555c-0.042-0.154-0.341-1.11-1.181-1.11-0.878 0-1.241 1.063-1.263 1.133l-1.696 7.242c-0.541-0.162-1.754-0.63-2.125-1.65-0.122-0.337-0.249-0.626-0.378-0.875l4.294-10.464zM11.246 16.996c0.201-0.501 0.39-0.68 0.501-0.68h0.002c0.147 0.003 0.533 0.317 0.964 1.469-0.228 0.828-2.239 7.702-6.146 8.253 1.113-2.057 4.119-7.642 4.678-9.042l0 0zM13.096 18.506c0.255 0.341 0.579 0.608 0.91 0.814-0.206 0.98-1.398 5.55-5.811 6.758 2.815-1.557 4.384-5.893 4.901-7.572l0-0zM14.525 19.6c0.294 0.135 0.559 0.224 0.748 0.279l-0.238 1.016c-0.044 0.188-0.979 3.937-5.116 5.122 3.254-1.7 4.333-5.252 4.606-6.417l-0 0zM15.589 21.024l2.056-8.788c0.002-0.007 0.256-0.719 0.716-0.719 0.45 0 0.633 0.692 0.634 0.698l0.966 2.511c-0.443 0.235-0.818 0.811-1.077 1.682l-1.111 3.581c-0.061 0.22-1.348 4.602-6.216 5.975 3.224-1.669 4.021-4.897 4.031-4.941l-0 0zM12.132 26.373c4.851-1.625 6.175-6.175 6.188-6.224l1.11-3.576c0.3-1.008 0.698-1.384 0.969-1.4 0.313-0.010 0.666 0.378 0.957 1.057l4.353 10.142h-13.577z"></path>
</symbol>
<symbol id="icon-icon05" viewBox="0 0 32 32">
<path fill="#967e76" style="fill: var(--color1, #967e76)" d="M9.018 21.235c-0.242-0.089-0.51 0.038-0.597 0.285l-0.635 1.786c-0.046 0.119-0.043 0.253 0.009 0.37s0.148 0.208 0.267 0.251c0.118 0.044 0.249 0.037 0.363-0.020s0.2-0.156 0.239-0.278l0.635-1.786c0.087-0.246-0.038-0.519-0.28-0.608v0zM19.498 21.15c-0.123 0.021-0.232 0.091-0.304 0.194s-0.1 0.232-0.079 0.357l0.327 1.9c0.040 0.225 0.233 0.389 0.457 0.39h0.084c0.123-0.021 0.232-0.091 0.304-0.194s0.1-0.232 0.078-0.357l-0.327-1.9c-0.021-0.125-0.089-0.236-0.191-0.31s-0.228-0.102-0.35-0.080v0zM12.518 21.15c-0.123-0.022-0.249 0.007-0.35 0.080s-0.17 0.185-0.191 0.31l-0.327 1.9 0-0c-0.022 0.125 0.007 0.253 0.078 0.357s0.181 0.174 0.304 0.194h0.084c0.225-0.001 0.417-0.165 0.457-0.39l0.327-1.9c0.022-0.125-0.007-0.253-0.079-0.357s-0.181-0.173-0.304-0.194v0zM16.008 21.15c-0.258 0-0.467 0.213-0.467 0.475v1.9c0 0.262 0.209 0.475 0.467 0.475s0.467-0.213 0.467-0.475v-1.9c0-0.126-0.049-0.247-0.137-0.336s-0.206-0.139-0.33-0.139v0zM23.595 21.521v-0c-0.040-0.122-0.126-0.222-0.239-0.278s-0.244-0.063-0.363-0.019c-0.119 0.044-0.215 0.134-0.267 0.251s-0.055 0.25-0.009 0.37l0.635 1.786c0.093 0.239 0.355 0.36 0.593 0.273s0.364-0.351 0.284-0.596l-0.635-1.786zM26.609 9.598c-0.453-0.51-1.097-0.8-1.773-0.798h-17.656c-0.672 0-1.313 0.29-1.764 0.798-0.446 0.49-0.666 1.15-0.607 1.814l0.569 5.7c0.063 0.593 0.34 1.14 0.779 1.536s1.006 0.61 1.591 0.602h16.518c0.582 0.003 1.145-0.213 1.58-0.608s0.709-0.94 0.772-1.529l0.569-5.7c0.067-0.661-0.143-1.32-0.579-1.814h0zM8.906 18.3c0.034-0.264 0.162-0.507 0.36-0.682s0.451-0.27 0.713-0.268h12.057c0.261-0.002 0.513 0.094 0.71 0.269s0.322 0.417 0.354 0.681h-14.194zM25.704 17.017c-0.040 0.358-0.209 0.687-0.475 0.924s-0.609 0.365-0.962 0.358h-0.215c-0.035-0.517-0.262-1-0.635-1.353s-0.863-0.548-1.372-0.547h-12.066c-0.607-0.003-1.183 0.273-1.568 0.75-0.261 0.327-0.414 0.729-0.439 1.15h-0.224c-0.352 0.005-0.693-0.124-0.957-0.361s-0.432-0.565-0.471-0.921l-0.159-1.567h19.69l-0.149 1.567zM25.947 14.5h-19.877l-0.327-3.182c-0.040-0.396 0.089-0.791 0.355-1.083 0.277-0.311 0.67-0.487 1.082-0.484h17.656c0.409-0 0.799 0.176 1.073 0.484 0.269 0.291 0.402 0.686 0.364 1.083l-0.327 3.182zM17.408 12.6h-2.8c-0.258 0-0.467 0.213-0.467 0.475s0.209 0.475 0.467 0.475h2.8c0.258 0 0.467-0.213 0.467-0.475s-0.209-0.475-0.467-0.475z"></path>
</symbol>
<symbol id="icon-icon06" viewBox="0 0 32 32">
<path fill="#967e76" style="fill: var(--color1, #967e76)" d="M10.696 9.256v-1.53c0-0.732 0.588-1.326 1.312-1.326h6.669c0.725 0 1.312 0.594 1.312 1.326v1.53h3.616c0.805 0 1.458 0.66 1.458 1.473v11.786c0 0.814-0.653 1.473-1.458 1.473h-16.548c-0.805 0-1.458-0.66-1.458-1.473v-11.786c0-0.814 0.653-1.473 1.458-1.473h3.638zM11.571 7.726c0-0.244 0.196-0.442 0.437-0.442h6.669c0.242 0 0.438 0.198 0.438 0.442v1.53h-7.544l0-1.53zM7.059 10.14h1.771v12.964h-1.771c-0.322 0-0.583-0.264-0.583-0.589v-11.786c0-0.325 0.261-0.589 0.583-0.589v0zM9.705 23.105v-12.964h11.277v12.964h-11.277zM21.857 23.105h1.75c0.322 0 0.583-0.264 0.583-0.589v-11.786c0-0.325-0.261-0.589-0.583-0.589h-1.75v12.964z"></path>
</symbol>
<symbol id="icon-icon07" viewBox="0 0 32 32">
<path fill="#967e76" style="fill: var(--color1, #967e76)" d="M21.627 5.875c-0.095-0.17-0.274-0.275-0.468-0.275h-10.099c-0.194 0-0.374 0.106-0.468 0.275-1.287 2.318-2.747 4.946-2.578 7.786 0.064 1.062 0.366 1.95 0.9 2.639 0.684 0.884 1.845 1.559 3.359 1.952 0.157 0.041 0.315 0.078 0.474 0.113 0.926 0.202 1.875 0.314 2.827 0.346v6.076l-4.014 0c-0.296 0-0.535 0.24-0.535 0.535s0.24 0.535 0.535 0.535h9.099c0.295 0 0.535-0.24 0.535-0.535s-0.24-0.535-0.535-0.535h-4.015v-6.076c0.952-0.032 1.901-0.144 2.828-0.346 0.159-0.035 0.317-0.072 0.473-0.113 1.513-0.394 2.675-1.068 3.358-1.952 0.534-0.69 0.837-1.578 0.9-2.64 0.169-2.84-1.29-5.467-2.577-7.786l-0-0zM11.374 6.67h9.47c0.855 1.543 1.752 3.224 2.124 4.958l-13.717 0c0.372-1.734 1.269-3.414 2.124-4.958h-0zM23.136 13.597c-0.051 0.843-0.279 1.532-0.679 2.049-0.679 0.877-1.886 1.339-2.78 1.571-0.144 0.037-0.289 0.072-0.434 0.104-1.024 0.224-2.077 0.336-3.13 0.336-0.002 0-0.003-0-0.004-0s-0.003 0-0.005 0c-1.053-0-2.106-0.112-3.129-0.336-0.146-0.032-0.29-0.067-0.435-0.104-0.894-0.232-2.102-0.693-2.781-1.571-0.4-0.516-0.628-1.206-0.679-2.048-0.018-0.3-0.014-0.6 0.008-0.899h14.037c0.023 0.299 0.027 0.599 0.009 0.899l-0 0z"></path>
</symbol>
<symbol id="icon-icon08" viewBox="0 0 32 32">
<path fill="#967e76" style="fill: var(--color1, #967e76)" d="M7.127 24.851c2.782 1.282 5.809 1.946 8.873 1.946s6.091-0.664 8.873-1.946c0.501-0.234 0.881-0.665 1.050-1.191 0.172-0.535 0.113-1.118-0.162-1.608l-9.412-16.651c-0.077-0.118-0.208-0.189-0.348-0.189s-0.271 0.071-0.348 0.189l-9.412 16.651c-0.276 0.49-0.334 1.073-0.162 1.608 0.169 0.526 0.549 0.957 1.050 1.191h0.001zM16 6.41l8.112 14.353c-2.496 1.335-5.282 2.034-8.112 2.034s-5.617-0.699-8.112-2.034l8.112-14.353zM6.937 22.445l0.557-0.986c2.616 1.403 5.538 2.138 8.506 2.138s5.89-0.734 8.506-2.138l0.557 0.986c0.166 0.295 0.202 0.646 0.098 0.969-0.098 0.314-0.326 0.572-0.625 0.71-2.677 1.234-5.589 1.873-8.536 1.873s-5.86-0.639-8.537-1.873c-0.299-0.138-0.526-0.396-0.624-0.71-0.104-0.322-0.068-0.674 0.098-0.969h-0zM12.4 21.197c0.424 0 0.831-0.169 1.131-0.469s0.469-0.707 0.469-1.131c0-0.424-0.169-0.831-0.469-1.131s-0.707-0.469-1.131-0.469c-0.424 0-0.831 0.169-1.131 0.469s-0.469 0.707-0.469 1.131c0.001 0.424 0.169 0.831 0.469 1.131s0.707 0.469 1.131 0.469zM12.4 18.797c0.212 0 0.416 0.084 0.566 0.234s0.234 0.354 0.234 0.566c0 0.212-0.084 0.416-0.234 0.566s-0.354 0.234-0.566 0.234-0.416-0.084-0.566-0.234c-0.15-0.15-0.234-0.354-0.234-0.566s0.085-0.416 0.234-0.566c0.15-0.15 0.353-0.234 0.566-0.234v0zM16.4 16.397c0 0.424 0.169 0.831 0.469 1.131s0.707 0.469 1.131 0.469c0.424 0 0.831-0.169 1.131-0.469s0.469-0.707 0.469-1.131c0-0.424-0.169-0.831-0.469-1.131s-0.707-0.469-1.131-0.469c-0.424 0-0.831 0.169-1.131 0.469s-0.469 0.707-0.469 1.131zM18.8 16.397c0 0.212-0.084 0.416-0.234 0.566s-0.354 0.234-0.566 0.234-0.416-0.084-0.566-0.234c-0.15-0.15-0.234-0.354-0.234-0.566s0.084-0.416 0.234-0.566c0.15-0.15 0.354-0.234 0.566-0.234s0.416 0.084 0.566 0.234c0.15 0.15 0.234 0.353 0.234 0.566v0zM19.579 20.924v-0c-0.070 0.21-0.296 0.323-0.506 0.253l-2.4-0.8c-0.21-0.070-0.323-0.297-0.253-0.506s0.296-0.323 0.506-0.253l2.4 0.8c0.209 0.070 0.322 0.297 0.253 0.506v0zM12.517 16.28v-0c-0.075-0.075-0.117-0.177-0.117-0.283s0.042-0.208 0.117-0.283l1.6-1.6c0.075-0.076 0.177-0.12 0.284-0.12s0.209 0.042 0.285 0.117c0.075 0.076 0.118 0.178 0.117 0.285s-0.044 0.209-0.12 0.284l-1.6 1.6c-0.075 0.075-0.177 0.117-0.283 0.117s-0.208-0.042-0.283-0.117v0zM15.717 11.48v-0c-0.076-0.075-0.119-0.177-0.12-0.284s0.042-0.209 0.117-0.285c0.076-0.076 0.178-0.118 0.285-0.117s0.209 0.044 0.284 0.12l1.6 1.6c0.076 0.075 0.12 0.177 0.12 0.284s-0.042 0.209-0.117 0.285c-0.076 0.076-0.178 0.118-0.285 0.117s-0.209-0.044-0.284-0.12l-1.6-1.6z"></path>
</symbol>
<symbol id="icon-instagram" viewBox="0 0 32 32">
<path fill="#eee4dd" style="fill: var(--color2, #eee4dd)" d="M16 2.881c4.275 0 4.781 0.019 6.463 0.094 1.562 0.069 2.406 0.331 2.969 0.55 0.744 0.288 1.281 0.637 1.838 1.194 0.562 0.563 0.906 1.094 1.194 1.837 0.219 0.563 0.481 1.412 0.55 2.969 0.075 1.688 0.094 2.194 0.094 6.463 0 4.275-0.019 4.781-0.094 6.463-0.069 1.562-0.331 2.406-0.55 2.969-0.288 0.744-0.638 1.281-1.194 1.838-0.563 0.562-1.094 0.906-1.838 1.194-0.562 0.219-1.412 0.481-2.969 0.55-1.688 0.075-2.194 0.094-6.463 0.094-4.275 0-4.781-0.019-6.463-0.094-1.563-0.069-2.406-0.331-2.969-0.55-0.744-0.288-1.281-0.638-1.838-1.194-0.563-0.563-0.906-1.094-1.194-1.838-0.219-0.562-0.481-1.412-0.55-2.969-0.075-1.688-0.094-2.194-0.094-6.463 0-4.275 0.019-4.781 0.094-6.463 0.069-1.563 0.331-2.406 0.55-2.969 0.288-0.744 0.638-1.281 1.194-1.838 0.563-0.563 1.094-0.906 1.838-1.194 0.563-0.219 1.412-0.481 2.969-0.55 1.681-0.075 2.188-0.094 6.463-0.094zM16 0c-4.344 0-4.887 0.019-6.594 0.094-1.7 0.075-2.869 0.35-3.881 0.744-1.056 0.412-1.95 0.956-2.837 1.85-0.894 0.888-1.438 1.781-1.85 2.831-0.394 1.019-0.669 2.181-0.744 3.881-0.075 1.713-0.094 2.256-0.094 6.6s0.019 4.888 0.094 6.594c0.075 1.7 0.35 2.869 0.744 3.881 0.413 1.056 0.956 1.95 1.85 2.837 0.887 0.888 1.781 1.438 2.831 1.844 1.019 0.394 2.181 0.669 3.881 0.744 1.706 0.075 2.25 0.094 6.594 0.094s4.888-0.019 6.594-0.094c1.7-0.075 2.869-0.35 3.881-0.744 1.050-0.406 1.944-0.956 2.831-1.844s1.437-1.781 1.844-2.831c0.394-1.019 0.669-2.181 0.744-3.881 0.075-1.706 0.094-2.25 0.094-6.594s-0.019-4.887-0.094-6.594c-0.075-1.7-0.35-2.869-0.744-3.881-0.394-1.063-0.937-1.956-1.831-2.844-0.888-0.887-1.781-1.438-2.831-1.844-1.019-0.394-2.181-0.669-3.881-0.744-1.712-0.081-2.256-0.1-6.6-0.1z"></path>
<path fill="#eee4dd" style="fill: var(--color2, #eee4dd)" d="M16 7.781c-4.537 0-8.219 3.681-8.219 8.219s3.681 8.219 8.219 8.219c4.537 0 8.219-3.681 8.219-8.219s-3.681-8.219-8.219-8.219zM16 21.331c-2.944 0-5.331-2.388-5.331-5.331s2.387-5.331 5.331-5.331c2.944 0 5.331 2.387 5.331 5.331s-2.388 5.331-5.331 5.331z"></path>
<path fill="#eee4dd" style="fill: var(--color2, #eee4dd)" d="M26.463 7.456c0 1.063-0.863 1.919-1.919 1.919-1.062 0-1.919-0.863-1.919-1.919 0-1.063 0.863-1.919 1.919-1.919s1.919 0.862 1.919 1.919z"></path>
</symbol>
<symbol id="icon-logo" viewBox="0 0 73 32">
<path d="M0 0h72.8v32h-72.8v-32z"></path>
</symbol>
<symbol id="icon-pinterest" viewBox="0 0 32 32">
<path fill="#eee4dd" style="fill: var(--color2, #eee4dd)" d="M16 0c-8.838 0-16 7.162-16 16 0 6.781 4.219 12.569 10.169 14.9-0.137-1.269-0.269-3.206 0.056-4.588 0.294-1.25 1.875-7.95 1.875-7.95s-0.481-0.956-0.481-2.375c0-2.225 1.287-3.888 2.894-3.888 1.363 0 2.025 1.025 2.025 2.256 0 1.375-0.875 3.425-1.325 5.325-0.375 1.594 0.8 2.894 2.369 2.894 2.844 0 5.031-3 5.031-7.325 0-3.831-2.75-6.513-6.681-6.513-4.55 0-7.225 3.412-7.225 6.944 0 1.375 0.531 2.85 1.194 3.65 0.131 0.156 0.15 0.3 0.113 0.456-0.119 0.506-0.394 1.594-0.444 1.812-0.069 0.294-0.231 0.356-0.537 0.212-2-0.931-3.25-3.85-3.25-6.2 0-5.050 3.669-9.681 10.569-9.681 5.55 0 9.862 3.956 9.862 9.244 0 5.512-3.475 9.95-8.3 9.95-1.619 0-3.144-0.844-3.669-1.837 0 0-0.8 3.056-0.994 3.806-0.363 1.388-1.338 3.131-1.988 4.194 1.5 0.463 3.088 0.712 4.737 0.712 8.837 0 16-7.163 16-16s-7.163-16-16-16z"></path>
</symbol>
</defs>
</svg>
